<svg xmlns="http://www.w3.org/2000/svg" width="308.689" height="328.807" viewBox="0 0 308.689 328.807">
  <g id="Сгруппировать_17" data-name="Сгруппировать 17" transform="translate(-325.655 -167)" opacity="0.6">
    <g id="noun_hoodie_3485668" transform="translate(224 75.427)">
      <g id="Сгруппировать_16" data-name="Сгруппировать 16">
        <path id="Контур_20" data-name="Контур 20" d="M359.555,200.38a5.5,5.5,0,0,0-7.113,3.146l-8.787,22.727a5.5,5.5,0,0,0-.37,1.983v56.727a5.513,5.513,0,0,0,.135,1.2V409.38H169.271V227.807a5.5,5.5,0,0,0-.37-1.983L160.114,203.1a5.5,5.5,0,1,0-10.26,3.967l8.417,21.77V414.88a5.5,5.5,0,0,0,5.5,5.5H348.919a5.5,5.5,0,0,0,5.5-5.5V238.042a5.513,5.513,0,0,0-.135-1.2v-7.581l8.417-21.77a5.5,5.5,0,0,0-3.146-7.113Z" fill="#ec86a9"/>
        <path id="Контур_21" data-name="Контур 21" d="M194.127,374.493c.958-.44,22.512-10.8,24.4-49.564h76.133c1.884,38.765,23.439,49.125,24.4,49.565a5.5,5.5,0,1,0,4.654-9.967c-.743-.364-18.182-9.338-18.182-45.1a5.5,5.5,0,0,0-5.5-5.5H213.154a5.5,5.5,0,0,0-5.5,5.5c0,35.759-17.44,44.733-18.119,45.068a5.5,5.5,0,0,0,4.592,10Z" fill="#ec86a9"/>
        <path id="Контур_22" data-name="Контур 22" d="M391.778,163.424,370.2,147.274a68.177,68.177,0,0,0-.958-23.049,41.366,41.366,0,0,0-28.777-30.75,42.276,42.276,0,0,0-41.878,9.939L256.346,143.69l-42.225-40.26a42.475,42.475,0,0,0-70.947,22.08,68.71,68.71,0,0,0-.731,21.283l-22.22,16.631a46.54,46.54,0,0,0-18.568,37.086V393.823a26.587,26.587,0,0,0,26.557,26.557h10.559a5.5,5.5,0,1,0,0-11H128.212a15.575,15.575,0,0,1-15.557-15.557V200.51a35.488,35.488,0,0,1,14.158-28.28l46.478-34.786a5.5,5.5,0,1,0-6.591-8.807L152.961,138.92a53.535,53.535,0,0,1,.994-11.227,30.833,30.833,0,0,1,21.27-23.56,31.216,31.216,0,0,1,31.3,7.257l40.191,38.32c-14.36-1.123-27.44-4.735-36.842-10.3a5.5,5.5,0,1,0-5.6,9.468,79.572,79.572,0,0,0,18.46,7.7v84.436a5.5,5.5,0,1,0,11,0v-81.9a130.817,130.817,0,0,0,45.213,0v81.9a5.5,5.5,0,0,0,11,0V156.578a79.564,79.564,0,0,0,18.461-7.7,5.5,5.5,0,1,0-5.6-9.468c-9.4,5.561-22.48,9.174-36.841,10.3l40.206-38.335A31.394,31.394,0,0,1,337.282,104a30.492,30.492,0,0,1,21.23,22.647,53.223,53.223,0,0,1,1.209,12.78L345.3,128.638a5.5,5.5,0,1,0-6.591,8.807l21.361,15.987a5.479,5.479,0,0,0,2.014,1.507l23.1,17.291a35.488,35.488,0,0,1,14.158,28.28V393.823a15.575,15.575,0,0,1-15.557,15.557h-10.56a5.5,5.5,0,0,0,0,11h10.559a26.587,26.587,0,0,0,26.557-26.557V200.51a46.539,46.539,0,0,0-18.566-37.086Z" fill="#ec86a9"/>
      </g>
    </g>
  </g>
</svg>
