<svg xmlns="http://www.w3.org/2000/svg" width="385.573" height="294.726" viewBox="0 0 385.573 294.726">
  <g id="Сгруппировать_20" data-name="Сгруппировать 20" transform="translate(-63.214 -108.638)" opacity="0.7">
    <path id="Контур_24" data-name="Контур 24" d="M203.194,127.92a5.5,5.5,0,0,0-3.776,6.8,58.862,58.862,0,0,0,113.164,0,5.5,5.5,0,1,0-10.576-3.024,47.862,47.862,0,0,1-92.012,0,5.5,5.5,0,0,0-6.8-3.776Z"/>
    <path id="Контур_25" data-name="Контур 25" d="M356.8,194.113a5.5,5.5,0,0,0-6.844,3.7l-6.787,22.727a5.506,5.506,0,0,0-.23,1.574V392.35l-174.014-.4V221.681a5.506,5.506,0,0,0-.23-1.573l-6.787-22.728a5.5,5.5,0,1,0-10.54,3.147l6.557,21.957V397.434a5.5,5.5,0,0,0,5.487,5.5l185.014.429h.013a5.5,5.5,0,0,0,5.5-5.5V222.914l6.557-21.957a5.5,5.5,0,0,0-3.7-6.844Z"/>
    <path id="Контур_26" data-name="Контур 26" d="M447.176,209.59l-75.059-75.081q-.85-.85-1.721-1.677a88.971,88.971,0,0,0-60.827-24.138l-5.529-.047h-.047a5.5,5.5,0,0,0-.046,11l5.529.047a78,78,0,0,1,53.346,21.116q.765.727,1.514,1.476l71.172,71.194-48.8,48.8L370.276,245.84a5.5,5.5,0,0,0-7.778,7.778l20.325,20.325a5.5,5.5,0,0,0,7.778,0l56.575-56.575a5.5,5.5,0,0,0,0-7.778Z"/>
    <path id="Контур_27" data-name="Контур 27" d="M142.108,245.456l-16.82,16.82-48.8-48.8,71.172-71.193q.749-.749,1.514-1.475a78,78,0,0,1,53.347-21.117l6.552-.056a5.5,5.5,0,0,0-.046-11h-.048l-6.552.056a88.971,88.971,0,0,0-60.828,24.14q-.869.825-1.718,1.674l-75.06,75.083a5.5,5.5,0,0,0,0,7.778L121.4,273.943a5.5,5.5,0,0,0,7.778,0l20.709-20.709a5.5,5.5,0,0,0-7.778-7.778Z"/>
  </g>
</svg>
