<svg xmlns="http://www.w3.org/2000/svg" width="35.89" height="31.103" viewBox="0 0 35.89 31.103">
  <g id="noun_cart_2587223" transform="translate(-0.25 -264.012)">
    <g id="Сгруппировать_22" data-name="Сгруппировать 22" transform="translate(0.25 264.012)">
      <path id="Контур_30" data-name="Контур 30" d="M10.829,17.961l18.311-.088,4.819-12H9.077ZM8.814,4.118H35.274a.863.863,0,0,1,.789,1.227L30.63,19.1a.964.964,0,0,1-.876.526L11,19.713l.438,2.628H29.579a.876.876,0,0,1,0,1.752H10.654a.878.878,0,0,1-.876-.876L6.887,2.891A1.4,1.4,0,0,0,5.573,1.752H1.1A.876.876,0,0,1,1.1,0H5.573A3.18,3.18,0,0,1,8.639,2.628Z" transform="translate(-0.25)"/>
      <path id="Контур_31" data-name="Контур 31" d="M124.979,287a2.954,2.954,0,0,1,2.979,2.979,2.979,2.979,0,0,1-5.958,0A2.954,2.954,0,0,1,124.979,287Zm0,1.752a1.2,1.2,0,0,0-1.227,1.227,1.227,1.227,0,1,0,2.453,0A1.2,1.2,0,0,0,124.979,288.752Z" transform="translate(-111.333 -261.855)"/>
      <path id="Контур_32" data-name="Контур 32" d="M266.979,287a2.954,2.954,0,0,1,2.979,2.979,3.01,3.01,0,0,1-2.979,2.979A3.071,3.071,0,0,1,264,289.979,3.01,3.01,0,0,1,266.979,287Zm0,1.752a1.253,1.253,0,0,0-1.227,1.227,1.319,1.319,0,0,0,1.227,1.227,1.253,1.253,0,0,0,1.227-1.227A1.2,1.2,0,0,0,266.979,288.752Z" transform="translate(-240.892 -261.855)"/>
    </g>
  </g>
</svg>
