<svg xmlns="http://www.w3.org/2000/svg" width="22.075" height="31.103" viewBox="0 0 22.075 31.103">
  <g id="noun_User_3692466" transform="translate(-5.999 -1.908)">
    <path id="Контур_28" data-name="Контур 28" d="M16.683,16.455A7.273,7.273,0,1,0,9.409,9.182,7.282,7.282,0,0,0,16.683,16.455Zm0-12.869a5.6,5.6,0,1,1-5.6,5.6A5.6,5.6,0,0,1,16.683,3.585Z" transform="translate(0.353)"/>
    <path id="Контур_29" data-name="Контур 29" d="M21.4,16.609H12.672A6.7,6.7,0,0,0,6,23.319v4.7a3.476,3.476,0,0,0,3.472,3.472H24.6a3.477,3.477,0,0,0,3.472-3.472v-4.7A6.7,6.7,0,0,0,21.4,16.609Zm5,11.408A1.8,1.8,0,0,1,24.6,29.811H9.471a1.8,1.8,0,0,1-1.794-1.794v-4.7a5.02,5.02,0,0,1,5-5.032H21.4a5.02,5.02,0,0,1,5,5.032Z" transform="translate(0 1.523)"/>
  </g>
</svg>
